<?xml version="1.0" encoding="utf-8"?>
<!-- Generator: Adobe Illustrator 25.2.0, SVG Export Plug-In . SVG Version: 6.00 Build 0)  -->
<svg version="1.1" id="Livello_1" xmlns="http://www.w3.org/2000/svg" xmlns:xlink="http://www.w3.org/1999/xlink" x="0px" y="0px"
	 viewBox="0 0 16 20" style="enable-background:new 0 0 16 20;" xml:space="preserve">
<path d="M14,4h-2c0-2.2-1.8-4-4-4S4,1.8,4,4H2C0.9,4,0,4.9,0,6v12c0,1.1,0.9,2,2,2h12c1.1,0,2-0.9,2-2V6C16,4.9,15.1,4,14,4z M12,6
	v2c0,0.6-0.4,1-1,1s-1-0.4-1-1V6H12z M8,2c1.1,0,2,0.9,2,2H6C6,2.9,6.9,2,8,2z M6,6v2c0,0.6-0.4,1-1,1S4,8.6,4,8V6H6z"/>
</svg>
