<?xml version="1.0" encoding="utf-8"?>
<!-- Generator: Adobe Illustrator 25.2.0, SVG Export Plug-In . SVG Version: 6.00 Build 0)  -->
<svg version="1.1" id="Livello_1" xmlns="http://www.w3.org/2000/svg" xmlns:xlink="http://www.w3.org/1999/xlink" x="0px" y="0px"
	 viewBox="0 0 22 22" style="enable-background:new 0 0 22 22;" xml:space="preserve">
<g>
	<path d="M11,17.7c2.2-0.1,3.9-0.9,5.2-2.4c1-1.2,1.5-2.5,1.5-4c0-0.5,0.1-0.9,0.7-0.8c0.5,0,0.6,0.4,0.6,0.9
		c-0.3,4.3-3.3,7.3-7.6,7.6c-0.1,0-0.2,0-0.4,0.1c0,0.6,0,1.1,0,1.7c0,0.3-0.1,0.7-0.3,0.8c-0.2,0.1-0.6,0-0.9-0.1
		c-1.2-0.8-2.4-1.6-3.6-2.4c-0.6-0.4-0.6-0.9,0-1.3c1.2-0.9,2.5-1.7,3.7-2.5c0.6-0.4,1-0.1,1.1,0.6C11,16.4,11,17,11,17.7z
		 M9.6,19.8c0-1,0-1.9,0-2.9c-0.8,0.5-1.4,1-2.2,1.5C8.2,18.9,8.9,19.3,9.6,19.8z"/>
	<path d="M11,3c0-0.6,0-1.2,0-1.8c0-0.8,0.5-1.1,1.2-0.6c1.2,0.8,2.4,1.6,3.7,2.4c0.6,0.4,0.6,0.8,0,1.2c-1.3,0.9-2.5,1.7-3.8,2.6
		c-0.5,0.3-1,0-1-0.6c0-0.6,0-1.2,0-1.9c-1.5,0-2.8,0.4-3.9,1.2c-1.7,1.2-2.6,2.9-2.8,4.9c0,0.1,0,0.2,0,0.4c0,0.4-0.2,0.8-0.7,0.7
		c-0.5,0-0.6-0.4-0.6-0.8c0-1.7,0.6-3.3,1.6-4.7c1.4-1.9,3.4-2.9,5.7-3.1C10.6,3.1,10.8,3.1,11,3z M12.3,2.2c0,1,0,1.9,0,2.9
		c0.8-0.5,1.4-1,2.2-1.5C13.7,3.2,13.1,2.7,12.3,2.2z"/>
</g>
</svg>
